<?xml version="1.0"?>
<svg xmlns="http://www.w3.org/2000/svg" xmlns:xlink="http://www.w3.org/1999/xlink" version="1.1" id="Capa_1" x="0px" y="0px" width="512px" height="512px" viewBox="0 0 46.055 46.055" style="enable-background:new 0 0 46.055 46.055;" xml:space="preserve" class=""><g><g>
	<g>
		<path d="M44.515,1.213c-0.847-0.845-1.996-1.291-3.199-1.202L4.199,2.443c-1.1,0.072-2.144,0.591-2.866,1.426    c-0.722,0.834-1.085,1.942-0.997,3.04l2.246,28.178c0.094,1.181,0.689,2.266,1.632,2.979c0.932,0.705,2.164,0.987,3.311,0.759    l8.404-1.676l4.211,6.917c0.747,1.228,2.104,1.989,3.541,1.989c1.437,0,2.794-0.755,3.541-1.982l4.318-7.086h8.237    c2.183,0,4-1.714,4.138-3.894l1.809-28.682C45.799,3.222,45.358,2.053,44.515,1.213z M40.922,32.905    c-0.038,0.602-0.54,1.081-1.145,1.081h-7.629l-8.119-0.163c-0.338-0.007-0.635,0.238-0.681,0.582    c-0.049,0.369,0.21,0.705,0.579,0.754l4.817,0.637l-4.085,6.71c-0.413,0.679-1.543,0.678-1.957,0l-4.411-7.246    c-0.441-0.726-1.243-1.177-2.093-1.177c-0.159,0-0.32,0.017-0.479,0.047l-8.782,1.751c-0.325,0.063-0.658-0.016-0.915-0.209    c-0.261-0.196-0.425-0.497-0.451-0.822L3.327,6.67C3.302,6.367,3.403,6.062,3.601,5.831c0.2-0.23,0.488-0.375,0.792-0.395    l37.192-2.435c0.306,0,0.593,0.119,0.81,0.335c0.232,0.232,0.354,0.558,0.334,0.887L40.922,32.905z" data-original="#000000" class="active-path" data-old_color="#555d66" fill="#555d66"/>
		<path d="M12.814,6.9L7.64,7.578c-1.292,0.169-2.198,1.317-2.063,2.613l0.885,8.549c0.061,0.585,0.554,1.021,1.13,1.021    c0.039,0,0.079-0.002,0.119-0.006c0.625-0.064,1.079-0.624,1.014-1.249L7.84,9.956C7.834,9.896,7.876,9.841,7.937,9.833    l5.173-0.678c0.623-0.082,1.062-0.653,0.98-1.276C14.008,7.257,13.438,6.819,12.814,6.9z" data-original="#000000" class="active-path" data-old_color="#555d66" fill="#555d66"/>
		<path d="M7.779,20.59c-0.623,0.081-1.063,0.651-0.981,1.274l0.296,2.279c0.074,0.572,0.563,0.99,1.126,0.99    c0.049,0,0.098-0.003,0.148-0.01c0.623-0.081,1.063-0.651,0.981-1.273l-0.296-2.279C8.973,20.948,8.406,20.511,7.779,20.59z" data-original="#000000" class="active-path" data-old_color="#555d66" fill="#555d66"/>
	</g>
</g></g> </svg>
